<svg xmlns="http://www.w3.org/2000/svg" version="1.1" xmlns:xlink="http://www.w3.org/1999/xlink" width="1000" height="1000"><style>
    #light-icon {
      display: inline;
    }
    #dark-icon {
      display: none;
    }

    @media (prefers-color-scheme: dark) {
      #light-icon {
        display: none;
      }
      #dark-icon {
        display: inline;
      }
    }
  </style><g id="light-icon"><svg xmlns="http://www.w3.org/2000/svg" version="1.1" xmlns:xlink="http://www.w3.org/1999/xlink" width="1000" height="1000"><g><g transform="matrix(6.165608237252605,0,0,6.165608237252605,178.95677908625686,0)"><svg xmlns="http://www.w3.org/2000/svg" version="1.1" xmlns:xlink="http://www.w3.org/1999/xlink" width="104.14" height="162.19"><svg xmlns="http://www.w3.org/2000/svg" version="1.1" width="104.14" height="162.19" viewBox="0 0 104.14 162.19">
  <path d="M 121.64 -154.02 L 121.64 -162.19 L 17.5 -162.19 L 17.5 0 L 39.09 0 L 39.09 -77.01 L 100.35 -77.01 L 100.35 -85.18 L 39.09 -85.18 L 39.09 -154.02 Z" style="fill:black; stroke:none" transform="translate(-17.5,162.19)"></path>
</svg></svg></g></g></svg></g><g id="dark-icon"><svg xmlns="http://www.w3.org/2000/svg" version="1.1" xmlns:xlink="http://www.w3.org/1999/xlink" width="1000" height="1000"><g><g transform="matrix(6.165608237252605,0,0,6.165608237252605,178.95677908625686,0)"><svg xmlns="http://www.w3.org/2000/svg" version="1.1" xmlns:xlink="http://www.w3.org/1999/xlink" width="104.14" height="162.19"><svg xmlns="http://www.w3.org/2000/svg" version="1.1" width="104.14" height="162.19" viewBox="0 0 104.14 162.19">
  <path d="M 121.64 -154.02 L 121.64 -162.19 L 17.5 -162.19 L 17.5 0 L 39.09 0 L 39.09 -77.01 L 100.35 -77.01 L 100.35 -85.18 L 39.09 -85.18 L 39.09 -154.02 Z" style="fill:white; stroke:none" transform="translate(-17.5,162.19)"></path>
</svg></svg></g></g></svg></g></svg>